<svg width="53" height="52" viewBox="0 0 53 52" fill="none" xmlns="http://www.w3.org/2000/svg">
<rect x="0.5" width="52" height="52" rx="26" fill="#FFD400"/>
<path d="M21.9263 32.9079C22.7557 32.9079 23.4351 33.6018 23.4351 34.459C23.4351 35.3061 22.7557 36 21.9263 36C21.087 36 20.4075 35.3061 20.4075 34.459C20.4075 33.6018 21.087 32.9079 21.9263 32.9079ZM33.1676 32.9079C33.9969 32.9079 34.6764 33.6018 34.6764 34.459C34.6764 35.3061 33.9969 36 33.1676 36C32.3282 36 31.6487 35.3061 31.6487 34.459C31.6487 33.6018 32.3282 32.9079 33.1676 32.9079ZM17.3801 16.0087L19.7632 16.3751C20.1029 16.4374 20.3527 16.7221 20.3827 17.069L20.5726 19.355C20.6025 19.6826 20.8623 19.9275 21.1821 19.9275H34.6766C35.2861 19.9275 35.6858 20.1418 36.0855 20.6112C36.4852 21.0807 36.5551 21.7542 36.4652 22.3655L35.5159 29.06C35.3361 30.3469 34.2569 31.2949 32.9879 31.2949H22.0864C20.7574 31.2949 19.6583 30.255 19.5484 28.908L18.6291 17.7834L17.1203 17.5181C16.7206 17.4466 16.4408 17.0486 16.5107 16.6404C16.5807 16.223 16.9704 15.9465 17.3801 16.0087ZM31.3891 23.7024H28.6213C28.2016 23.7024 27.8719 24.0391 27.8719 24.4677C27.8719 24.8861 28.2016 25.2331 28.6213 25.2331H31.3891C31.8088 25.2331 32.1386 24.8861 32.1386 24.4677C32.1386 24.0391 31.8088 23.7024 31.3891 23.7024Z" fill="#262626"/>
</svg>
