<svg width="41" height="40" viewBox="0 0 41 40" fill="none" xmlns="http://www.w3.org/2000/svg">
<path d="M4.55599 18.7304L4.55598 18.7304L4.55503 18.7332C3.7624 21.0767 3.3623 23.3453 3.3623 25.5364V31.9417C3.3623 32.7702 4.03388 33.4417 4.86231 33.4417H13.0415C13.87 33.4417 14.5415 32.7702 14.5415 31.9417L14.5416 25.4638L14.5415 25.4596C14.5184 22.7093 14.9569 20.2093 15.8491 17.9532C16.6601 15.9337 17.6389 13.9865 18.7859 12.1114C19.2072 11.4227 19.0257 10.5099 18.3409 10.0536L13.8431 7.05642L13.8431 7.05642C13.2947 6.69096 12.5562 6.71948 12.0485 7.17184C10.5162 8.53712 9.12206 10.1628 7.86461 12.0452L7.86392 12.0463C6.47389 14.1385 5.37104 16.3668 4.55599 18.7304ZM22.4757 18.7304L22.4747 18.7332C21.6821 21.0767 21.282 23.3453 21.282 25.5364V31.9417C21.282 32.7702 21.9536 33.4417 22.782 33.4417H30.9613C31.7897 33.4417 32.4613 32.7702 32.4613 31.9417L32.4613 25.4638L32.4612 25.4596C32.4382 22.7093 32.8766 20.2093 33.7688 17.9532C34.5798 15.9337 35.5586 13.9865 36.7056 12.1114C37.1269 11.4227 36.9454 10.5099 36.2606 10.0536L31.7628 7.05642C31.2144 6.69096 30.4759 6.71948 29.9682 7.17184L30.3004 7.54459L29.9682 7.17184C28.4359 8.53712 27.0418 10.1628 25.7843 12.0452L25.7836 12.0463C24.3936 14.1385 23.2908 16.3668 22.4757 18.7304Z" fill="#FFE566" stroke="#FFE566"/>
</svg>
