<svg width="36" height="36" viewBox="0 0 36 36" fill="none" xmlns="http://www.w3.org/2000/svg">
<rect width="36" height="36" rx="18" fill="#262626"/>
<g clip-path="url(#clip0_0_463)">
<path d="M26 18C26 13.5817 22.4183 10 18 10C13.5817 10 10 13.5817 10 18C10 21.993 12.9255 25.3027 16.75 25.9028V20.3125H14.7188V18H16.75V16.2375C16.75 14.2325 17.9444 13.125 19.7717 13.125C20.6467 13.125 21.5625 13.2812 21.5625 13.2812V15.25H20.5538C19.56 15.25 19.25 15.8667 19.25 16.5V18H21.4688L21.1141 20.3125H19.25V25.9028C23.0745 25.3027 26 21.993 26 18Z" fill="white"/>
</g>
<defs>
<clipPath id="clip0_0_463">
<rect width="16" height="16" fill="white" transform="translate(10 10)"/>
</clipPath>
</defs>
</svg>
