<svg width="44" height="45" viewBox="0 0 44 45" fill="none" xmlns="http://www.w3.org/2000/svg">
<rect y="0.5" width="44" height="44" rx="22" fill="#FFD400"/>
<path d="M13.875 14.375C13.5298 14.375 13.25 14.6548 13.25 15C13.25 15.3452 13.5298 15.625 13.875 15.625H15.0297C15.1713 15.625 15.2952 15.7202 15.3317 15.857L17.4631 23.8499C16.1182 24.1988 15.125 25.4209 15.125 26.875C15.125 27.2202 15.4048 27.5 15.75 27.5H28.875C29.2202 27.5 29.5 27.2202 29.5 26.875C29.5 26.5298 29.2202 26.25 28.875 26.25H16.4817C16.7391 25.5218 17.4336 25 18.25 25H27.5985C27.8376 25 28.0557 24.8637 28.1604 24.6488C29.1064 22.7075 29.9319 20.6967 30.6273 18.626C30.6826 18.4613 30.6668 18.281 30.5837 18.1283C30.5007 17.9757 30.3578 17.8645 30.1894 17.8215C26.1712 16.7953 21.9614 16.25 17.625 16.25C17.3268 16.25 17.0292 16.2526 16.7322 16.2577L16.5395 15.5349C16.3571 14.8509 15.7376 14.375 15.0297 14.375H13.875Z" fill="#262626"/>
<path d="M15.125 29.375C15.125 28.6846 15.6846 28.125 16.375 28.125C17.0654 28.125 17.625 28.6846 17.625 29.375C17.625 30.0654 17.0654 30.625 16.375 30.625C15.6846 30.625 15.125 30.0654 15.125 29.375Z" fill="#262626"/>
<path d="M25.75 29.375C25.75 28.6846 26.3096 28.125 27 28.125C27.6904 28.125 28.25 28.6846 28.25 29.375C28.25 30.0654 27.6904 30.625 27 30.625C26.3096 30.625 25.75 30.0654 25.75 29.375Z" fill="#262626"/>
</svg>
