<svg width="48" height="48" viewBox="0 0 48 48" fill="none" xmlns="http://www.w3.org/2000/svg">
<rect width="48" height="48" rx="24" fill="#FFD400"/>
<path d="M24 14.625C20.203 14.625 17.125 17.703 17.125 21.5C17.125 24.0423 18.5053 26.2615 20.5543 27.4504C21.1255 27.7818 21.4832 28.2903 21.4994 28.8021C21.5083 29.0844 21.7055 29.3257 21.9803 29.3906C22.2732 29.4598 22.5715 29.5143 22.8747 29.5532C23.1443 29.5879 23.3752 29.3719 23.3752 29.1V25.2158C23.1091 25.1864 22.8484 25.1383 22.5944 25.073C22.2601 24.9869 22.0588 24.6462 22.1449 24.3119C22.2309 23.9776 22.5717 23.7764 22.9059 23.8624C23.2549 23.9522 23.6215 24.0002 24.0002 24.0002C24.3788 24.0002 24.7454 23.9522 25.0944 23.8624C25.4286 23.7764 25.7694 23.9776 25.8554 24.3119C25.9415 24.6462 25.7402 24.9869 25.4059 25.073C25.1519 25.1383 24.8912 25.1864 24.6252 25.2158V29.0999C24.6252 29.3718 24.856 29.5879 25.1257 29.5532C25.4287 29.5143 25.727 29.4598 26.0197 29.3906C26.2945 29.3257 26.4917 29.0844 26.5006 28.8021C26.5168 28.2903 26.8745 27.7818 27.4457 27.4504C29.4947 26.2615 30.875 24.0423 30.875 21.5C30.875 17.703 27.797 14.625 24 14.625Z" fill="#262626"/>
<path fill-rule="evenodd" clip-rule="evenodd" d="M21.511 30.583C21.5753 30.2439 21.9024 30.0211 22.2415 30.0855C22.8106 30.1934 23.3984 30.25 24 30.25C24.6016 30.25 25.1894 30.1934 25.7585 30.0855C26.0977 30.0211 26.4247 30.2439 26.4891 30.583C26.5534 30.9222 26.3306 31.2492 25.9915 31.3136C25.3459 31.436 24.6802 31.5 24 31.5C23.3199 31.5 22.6541 31.436 22.0085 31.3136C21.6694 31.2492 21.4466 30.9222 21.511 30.583Z" fill="#262626"/>
<path fill-rule="evenodd" clip-rule="evenodd" d="M22.1284 32.62C22.1643 32.2767 22.4717 32.0275 22.815 32.0634C23.2043 32.1041 23.5996 32.125 24 32.125C24.4004 32.125 24.7957 32.1041 25.185 32.0634C25.5283 32.0275 25.8357 32.2767 25.8716 32.62C25.9075 32.9633 25.6583 33.2707 25.315 33.3066C24.8827 33.3518 24.4439 33.375 24 33.375C23.5561 33.375 23.1173 33.3518 22.685 33.3066C22.3417 33.2707 22.0925 32.9633 22.1284 32.62Z" fill="#262626"/>
</svg>
