<svg width="36" height="36" viewBox="0 0 36 36" fill="none" xmlns="http://www.w3.org/2000/svg">
<rect width="36" height="36" rx="18" fill="#262626"/>
<g clip-path="url(#clip0_0_469)">
<path d="M24.8156 10H11.1812C10.5281 10 10 10.5156 10 11.1531V24.8438C10 25.4813 10.5281 26 11.1812 26H24.8156C25.4688 26 26 25.4813 26 24.8469V11.1531C26 10.5156 25.4688 10 24.8156 10ZM14.7469 23.6344H12.3719V15.9969H14.7469V23.6344ZM13.5594 14.9563C12.7969 14.9563 12.1813 14.3406 12.1813 13.5812C12.1813 12.8219 12.7969 12.2062 13.5594 12.2062C14.3188 12.2062 14.9344 12.8219 14.9344 13.5812C14.9344 14.3375 14.3188 14.9563 13.5594 14.9563ZM23.6344 23.6344H21.2625V19.9219C21.2625 19.0375 21.2469 17.8969 20.0281 17.8969C18.7937 17.8969 18.6062 18.8625 18.6062 19.8594V23.6344H16.2375V15.9969H18.5125V17.0406H18.5437C18.8594 16.4406 19.6344 15.8063 20.7875 15.8063C23.1906 15.8063 23.6344 17.3875 23.6344 19.4438V23.6344Z" fill="white"/>
</g>
<defs>
<clipPath id="clip0_0_469">
<rect width="16" height="16" fill="white" transform="translate(10 10)"/>
</clipPath>
</defs>
</svg>
