<svg width="40" height="40" viewBox="0 0 40 40" fill="none" xmlns="http://www.w3.org/2000/svg">
<path d="M4.00034 35.9997C4.00034 33.8986 4.41419 31.818 5.21826 29.8768C6.02233 27.9356 7.20089 26.1718 8.68662 24.686C10.1724 23.2003 11.9362 22.0218 13.8774 21.2177C15.8186 20.4136 17.8992 19.9998 20.0003 19.9998V35.9997L4.00034 35.9997Z" fill="#1A1A1A"/>
<path d="M20.0005 19.9998C20.0005 22.1009 20.4143 24.1815 21.2184 26.1227C22.0225 28.0639 23.201 29.8277 24.6868 31.3135C26.1725 32.7992 27.9363 33.9777 29.8775 34.7818C31.8188 35.5859 33.8993 35.9997 36.0005 35.9997L36.0005 19.9998L20.0005 19.9998Z" fill="#FFD400"/>
<path d="M20.0003 19.9997C20.0003 17.8986 19.5865 15.818 18.7824 13.8768C17.9783 11.9356 16.7998 10.1718 15.314 8.68604C13.8283 7.20031 12.0645 6.02175 10.1233 5.21768C8.18206 4.41361 6.10148 3.99976 4.00034 3.99976L4.00034 19.9997H20.0003Z" fill="#FFD400"/>
<path d="M36.0003 3.99976C36.0003 6.1009 35.5864 8.18148 34.7824 10.1227C33.9783 12.0639 32.7997 13.8277 31.314 15.3134C29.8283 16.7992 28.0644 17.9777 26.1232 18.7818C24.182 19.5859 22.1015 19.9997 20.0003 19.9997L20.0003 3.99976H36.0003Z" fill="#1A1A1A"/>
</svg>
