<svg width="49" height="48" viewBox="0 0 49 48" fill="none" xmlns="http://www.w3.org/2000/svg">
<rect x="0.333374" width="48" height="48" rx="24" fill="#FFD400"/>
<path d="M28.401 17.6212C26.675 18.3117 24.8265 18.761 22.8967 18.9275C22.3404 18.9755 21.7773 19 21.2084 19H20.5834C18.1671 19 16.2084 20.9588 16.2084 23.375C16.2084 25.5414 17.7829 27.34 19.85 27.6889C20.1286 28.8297 20.5151 29.9282 20.9981 30.9729C21.3848 31.8093 22.3932 32.0729 23.1503 31.6358L23.6972 31.3201C24.4306 30.8966 24.6686 29.9928 24.3406 29.2633C24.1449 28.828 23.9702 28.3812 23.8179 27.9242C25.4157 28.1392 26.9516 28.549 28.401 29.1289C29.0058 27.3211 29.3334 25.3863 29.3334 23.375C29.3334 21.3638 29.0058 19.429 28.401 17.6212Z" fill="#262626"/>
<path d="M29.5506 17.1173C30.2201 19.0804 30.5834 21.1853 30.5834 23.375C30.5834 25.5648 30.2201 27.6697 29.5505 29.6328C29.5046 29.7676 29.4573 29.9018 29.4085 30.0352C29.2898 30.3594 29.4564 30.7183 29.7806 30.837C30.1047 30.9556 30.4637 30.789 30.5823 30.4649C30.699 30.1461 30.808 29.8237 30.9092 29.4978C31.3456 28.0922 31.6356 26.6224 31.7617 25.1065C32.1925 24.6578 32.4584 24.0473 32.4584 23.375C32.4584 22.7028 32.1925 22.0923 31.7617 21.6436C31.6356 20.1277 31.3456 18.6579 30.9092 17.2523C30.808 16.9264 30.699 16.604 30.5823 16.2852C30.4637 15.9611 30.1047 15.7945 29.7806 15.9131C29.4564 16.0318 29.2898 16.3907 29.4085 16.7149C29.4573 16.8483 29.5046 16.9825 29.5506 17.1173Z" fill="#262626"/>
</svg>
