<svg width="49" height="48" viewBox="0 0 49 48" fill="none" xmlns="http://www.w3.org/2000/svg">
<rect x="0.666626" width="48" height="48" rx="24" fill="#FFD400"/>
<path fill-rule="evenodd" clip-rule="evenodd" d="M30.8741 21.0401L28.3231 23.166C28.4478 23.7145 28.4478 24.2855 28.3231 24.834L30.8741 26.9599C31.7641 25.0931 31.7641 22.9069 30.8741 21.0401ZM27.6265 30.2075L25.5007 27.6565C24.9521 27.7812 24.3812 27.7812 23.8326 27.6565L21.7068 30.2075C23.5735 31.0975 25.7598 31.0975 27.6265 30.2075ZM18.4591 26.9599L21.0101 24.834C20.8855 24.2855 20.8855 23.7145 21.0101 23.166L18.4591 21.0401C17.5691 22.9069 17.5691 25.0931 18.4591 26.9599ZM21.7068 17.7925L23.8326 20.3435C24.3812 20.2188 24.9521 20.2188 25.5007 20.3435L27.6265 17.7925C25.7598 16.9025 23.5735 16.9025 21.7068 17.7925ZM28.9212 17.076C29.452 17.4027 29.9529 17.7958 30.4119 18.2548C30.8709 18.7137 31.2639 19.2146 31.5906 19.7454C33.192 22.3469 33.192 25.6531 31.5906 28.2546C31.2639 28.7854 30.8709 29.2863 30.4119 29.7452C29.9529 30.2042 29.452 30.5973 28.9212 30.924C26.3197 32.5253 23.0136 32.5253 20.412 30.924C19.8813 30.5973 19.3804 30.2042 18.9214 29.7452C18.4624 29.2863 18.0693 28.7854 17.7426 28.2546C16.1413 25.6531 16.1413 22.3469 17.7426 19.7454C18.0693 19.2146 18.4624 18.7137 18.9214 18.2548C19.3804 17.7958 19.8813 17.4027 20.412 17.076C23.0136 15.4747 26.3197 15.4747 28.9212 17.076ZM26.4344 22.2322C26.1631 21.9609 25.8464 21.7659 25.5095 21.6456C24.9658 21.4515 24.3675 21.4515 23.8238 21.6456C23.4868 21.7659 23.1702 21.9609 22.8989 22.2322C22.6276 22.5035 22.4325 22.8202 22.3122 23.1571C22.1181 23.7008 22.1181 24.2992 22.3122 24.8429C22.4325 25.1798 22.6276 25.4965 22.8989 25.7678C23.1702 26.0391 23.4868 26.2341 23.8238 26.3544C24.3675 26.5485 24.9658 26.5485 25.5095 26.3544C25.8464 26.2341 26.1631 26.0391 26.4344 25.7678C26.7057 25.4965 26.9007 25.1798 27.021 24.8429C27.2152 24.2992 27.2152 23.7008 27.021 23.1571C26.9007 22.8202 26.7057 22.5035 26.4344 22.2322Z" fill="#262626"/>
</svg>
