<svg width="21" height="21" viewBox="0 0 21 21" fill="none" xmlns="http://www.w3.org/2000/svg">
<path fill-rule="evenodd" clip-rule="evenodd" d="M6.75 5.5V6.125H5.09406C4.29444 6.125 3.62385 6.7287 3.54014 7.52393L2.48751 17.5239C2.3904 18.4465 3.11377 19.25 4.04143 19.25H16.9587C17.8864 19.25 18.6097 18.4465 18.5126 17.5239L17.46 7.52393C17.3763 6.7287 16.7057 6.125 15.9061 6.125H14.25V5.5C14.25 3.42893 12.5711 1.75 10.5 1.75C8.42893 1.75 6.75 3.42893 6.75 5.5ZM10.5 3C9.11929 3 8 4.11929 8 5.5V6.125H13V5.5C13 4.11929 11.8807 3 10.5 3ZM8 9.875C8 11.2557 9.11929 12.375 10.5 12.375C11.8807 12.375 13 11.2557 13 9.875V9.25C13 8.90482 13.2798 8.625 13.625 8.625C13.9702 8.625 14.25 8.90482 14.25 9.25V9.875C14.25 11.9461 12.5711 13.625 10.5 13.625C8.42893 13.625 6.75 11.9461 6.75 9.875V9.25C6.75 8.90482 7.02982 8.625 7.375 8.625C7.72018 8.625 8 8.90482 8 9.25V9.875Z" fill="#262626"/>
</svg>
