<svg width="49" height="48" viewBox="0 0 49 48" fill="none" xmlns="http://www.w3.org/2000/svg">
<rect x="0.666626" width="48" height="48" rx="24" fill="#FFD400"/>
<path fill-rule="evenodd" clip-rule="evenodd" d="M22.1666 17.75C22.4457 17.75 22.6909 17.935 22.7676 18.2033L23.4452 20.5751C23.7419 21.6133 24.5534 22.4248 25.5915 22.7214L27.9633 23.399C28.2316 23.4757 28.4166 23.7209 28.4166 24C28.4166 24.2791 28.2316 24.5243 27.9633 24.601L25.5915 25.2786C24.5534 25.5752 23.7419 26.3867 23.4452 27.4249L22.7676 29.7967C22.6909 30.065 22.4457 30.25 22.1666 30.25C21.8876 30.25 21.6423 30.065 21.5657 29.7967L20.888 27.4249C20.5914 26.3867 19.7799 25.5752 18.7417 25.2786L16.3699 24.601C16.1016 24.5243 15.9166 24.2791 15.9166 24C15.9166 23.7209 16.1016 23.4757 16.3699 23.399L18.7418 22.7214C19.7799 22.4248 20.5914 21.6133 20.888 20.5751L21.5657 18.2033C21.6423 17.935 21.8876 17.75 22.1666 17.75Z" fill="#262626"/>
<path fill-rule="evenodd" clip-rule="evenodd" d="M29.6666 15.25C29.9534 15.25 30.2034 15.4452 30.273 15.7234L30.4887 16.5863C30.6846 17.37 31.2966 17.982 32.0803 18.1779L32.9432 18.3937C33.2214 18.4632 33.4166 18.7132 33.4166 19C33.4166 19.2868 33.2214 19.5368 32.9432 19.6063L32.0803 19.8221C31.2966 20.018 30.6846 20.63 30.4887 21.4137L30.273 22.2766C30.2034 22.5548 29.9534 22.75 29.6666 22.75C29.3798 22.75 29.1298 22.5548 29.0603 22.2766L28.8446 21.4137C28.6486 20.63 28.0367 20.018 27.2529 19.8221L26.39 19.6063C26.1118 19.5368 25.9166 19.2868 25.9166 19C25.9166 18.7132 26.1118 18.4632 26.39 18.3937L27.2529 18.1779C28.0367 17.982 28.6486 17.37 28.8446 16.5863L29.0603 15.7234C29.1298 15.4452 29.3798 15.25 29.6666 15.25Z" fill="#262626"/>
<path fill-rule="evenodd" clip-rule="evenodd" d="M28.4166 26.5C28.6856 26.5 28.9245 26.6721 29.0096 26.9274L29.3381 27.913C29.4625 28.2862 29.7554 28.5791 30.1287 28.7035L31.1143 29.0321C31.3695 29.1171 31.5416 29.356 31.5416 29.625C31.5416 29.894 31.3695 30.1329 31.1143 30.2179L30.1287 30.5465C29.7554 30.6709 29.4625 30.9638 29.3381 31.337L29.0096 32.3226C28.9245 32.5779 28.6856 32.75 28.4166 32.75C28.1476 32.75 27.9088 32.5779 27.8237 32.3226L27.4952 31.337C27.3707 30.9638 27.0778 30.6709 26.7046 30.5465L25.719 30.2179C25.4638 30.1329 25.2916 29.894 25.2916 29.625C25.2916 29.356 25.4638 29.1171 25.719 29.0321L26.7046 28.7035C27.0778 28.5791 27.3707 28.2862 27.4952 27.913L27.8237 26.9274C27.9088 26.6721 28.1476 26.5 28.4166 26.5Z" fill="#262626"/>
</svg>
