<svg width="92" height="16" viewBox="0 0 92 16" fill="none" xmlns="http://www.w3.org/2000/svg">
<path d="M7.15861 1.30996C7.55219 0.697195 8.44781 0.697195 8.84139 1.30996L10.5168 3.91833C10.6522 4.12917 10.8618 4.28148 11.1042 4.34512L14.1026 5.13245C14.807 5.31742 15.0838 6.1692 14.6226 6.73287L12.6596 9.13227C12.5009 9.32622 12.4209 9.57266 12.4352 9.82282L12.613 12.9178C12.6548 13.6449 11.9302 14.1713 11.2516 13.9069L8.36304 12.7815C8.12956 12.6905 7.87044 12.6905 7.63696 12.7815L4.74839 13.9069C4.06981 14.1713 3.34523 13.6449 3.38699 12.9178L3.56476 9.82282C3.57912 9.57266 3.49905 9.32622 3.34038 9.13227L1.37739 6.73287C0.916239 6.1692 1.193 5.31742 1.8974 5.13245L4.89582 4.34512C5.13819 4.28148 5.34782 4.12917 5.48324 3.91833L7.15861 1.30996Z" fill="#FFCE22"/>
<path d="M26.1586 1.30996C26.5522 0.697195 27.4478 0.697195 27.8414 1.30996L29.5168 3.91833C29.6522 4.12917 29.8618 4.28148 30.1042 4.34512L33.1026 5.13245C33.807 5.31742 34.0838 6.1692 33.6226 6.73287L31.6596 9.13227C31.5009 9.32622 31.4209 9.57266 31.4352 9.82282L31.613 12.9178C31.6548 13.6449 30.9302 14.1713 30.2516 13.9069L27.363 12.7815C27.1296 12.6905 26.8704 12.6905 26.637 12.7815L23.7484 13.9069C23.0698 14.1713 22.3452 13.6449 22.387 12.9178L22.5648 9.82282C22.5791 9.57266 22.4991 9.32622 22.3404 9.13227L20.3774 6.73287C19.9162 6.1692 20.193 5.31742 20.8974 5.13245L23.8958 4.34512C24.1382 4.28148 24.3478 4.12917 24.4832 3.91833L26.1586 1.30996Z" fill="#FFCE22"/>
<path d="M45.1586 1.30996C45.5522 0.697195 46.4478 0.697195 46.8414 1.30996L48.5168 3.91833C48.6522 4.12917 48.8618 4.28148 49.1042 4.34512L52.1026 5.13245C52.807 5.31742 53.0838 6.1692 52.6226 6.73287L50.6596 9.13227C50.5009 9.32622 50.4209 9.57266 50.4352 9.82282L50.613 12.9178C50.6548 13.6449 49.9302 14.1713 49.2516 13.9069L46.363 12.7815C46.1296 12.6905 45.8704 12.6905 45.637 12.7815L42.7484 13.9069C42.0698 14.1713 41.3452 13.6449 41.387 12.9178L41.5648 9.82282C41.5791 9.57266 41.4991 9.32622 41.3404 9.13227L39.3774 6.73287C38.9162 6.1692 39.193 5.31742 39.8974 5.13245L42.8958 4.34512C43.1382 4.28148 43.3478 4.12917 43.4832 3.91833L45.1586 1.30996Z" fill="#FFCE22"/>
<path d="M64.1586 1.30996C64.5522 0.697195 65.4478 0.697195 65.8414 1.30996L67.5168 3.91833C67.6522 4.12917 67.8618 4.28148 68.1042 4.34512L71.1026 5.13245C71.807 5.31742 72.0838 6.1692 71.6226 6.73287L69.6596 9.13227C69.5009 9.32622 69.4209 9.57266 69.4352 9.82282L69.613 12.9178C69.6548 13.6449 68.9302 14.1713 68.2516 13.9069L65.363 12.7815C65.1296 12.6905 64.8704 12.6905 64.637 12.7815L61.7484 13.9069C61.0698 14.1713 60.3452 13.6449 60.387 12.9178L60.5648 9.82282C60.5791 9.57266 60.4991 9.32622 60.3404 9.13227L58.3774 6.73287C57.9162 6.1692 58.193 5.31742 58.8974 5.13245L61.8958 4.34512C62.1382 4.28148 62.3478 4.12917 62.4832 3.91833L64.1586 1.30996Z" fill="#FFCE22"/>
<path d="M83.1586 1.30996C83.5522 0.697195 84.4478 0.697195 84.8414 1.30996L86.5168 3.91833C86.6522 4.12917 86.8618 4.28148 87.1042 4.34512L90.1026 5.13245C90.807 5.31742 91.0838 6.1692 90.6226 6.73287L88.6596 9.13227C88.5009 9.32622 88.4209 9.57266 88.4352 9.82282L88.613 12.9178C88.6548 13.6449 87.9302 14.1713 87.2516 13.9069L84.363 12.7815C84.1296 12.6905 83.8704 12.6905 83.637 12.7815L80.7484 13.9069C80.0698 14.1713 79.3452 13.6449 79.387 12.9178L79.5648 9.82282C79.5791 9.57266 79.4991 9.32622 79.3404 9.13227L77.3774 6.73287C76.9162 6.1692 77.193 5.31742 77.8974 5.13245L80.8958 4.34512C81.1382 4.28148 81.3478 4.12917 81.4832 3.91833L83.1586 1.30996Z" fill="#FFCE22"/>
</svg>
