<svg width="49" height="48" viewBox="0 0 49 48" fill="none" xmlns="http://www.w3.org/2000/svg">
<rect x="0.333374" width="48" height="48" rx="24" fill="#FFD400"/>
<path d="M24.3334 15.875C24.6786 15.875 24.9584 16.1548 24.9584 16.5V18.375C24.9584 18.7202 24.6786 19 24.3334 19C23.9882 19 23.7084 18.7202 23.7084 18.375V16.5C23.7084 16.1548 23.9882 15.875 24.3334 15.875Z" fill="#262626"/>
<path d="M20.5834 24C20.5834 21.9289 22.2623 20.25 24.3334 20.25C26.4044 20.25 28.0834 21.9289 28.0834 24C28.0834 26.0711 26.4044 27.75 24.3334 27.75C22.2623 27.75 20.5834 26.0711 20.5834 24Z" fill="#262626"/>
<path d="M30.0787 19.1386C30.3227 18.8945 30.3227 18.4988 30.0787 18.2547C29.8346 18.0107 29.4389 18.0107 29.1948 18.2547L27.869 19.5806C27.6249 19.8246 27.6249 20.2204 27.869 20.4644C28.113 20.7085 28.5088 20.7085 28.7528 20.4644L30.0787 19.1386Z" fill="#262626"/>
<path d="M32.4584 24C32.4584 24.3452 32.1786 24.625 31.8334 24.625H29.9584C29.6132 24.625 29.3334 24.3452 29.3334 24C29.3334 23.6548 29.6132 23.375 29.9584 23.375H31.8334C32.1786 23.375 32.4584 23.6548 32.4584 24Z" fill="#262626"/>
<path d="M29.1947 29.7452C29.4388 29.9893 29.8345 29.9893 30.0786 29.7452C30.3226 29.5011 30.3226 29.1054 30.0786 28.8613L28.7527 27.5355C28.5087 27.2914 28.1129 27.2914 27.8689 27.5355C27.6248 27.7796 27.6248 28.1753 27.8689 28.4194L29.1947 29.7452Z" fill="#262626"/>
<path d="M24.3334 29C24.6786 29 24.9584 29.2798 24.9584 29.625V31.5C24.9584 31.8452 24.6786 32.125 24.3334 32.125C23.9882 32.125 23.7084 31.8452 23.7084 31.5V29.625C23.7084 29.2798 23.9882 29 24.3334 29Z" fill="#262626"/>
<path d="M20.798 28.4194C21.042 28.1753 21.042 27.7796 20.798 27.5355C20.5539 27.2914 20.1582 27.2914 19.9141 27.5355L18.5883 28.8613C18.3442 29.1054 18.3442 29.5011 18.5883 29.7452C18.8323 29.9893 19.2281 29.9893 19.4721 29.7452L20.798 28.4194Z" fill="#262626"/>
<path d="M19.3334 24C19.3334 24.3452 19.0536 24.625 18.7084 24.625H16.8334C16.4882 24.625 16.2084 24.3452 16.2084 24C16.2084 23.6548 16.4882 23.375 16.8334 23.375H18.7084C19.0536 23.375 19.3334 23.6548 19.3334 24Z" fill="#262626"/>
<path d="M19.914 20.4644C20.1581 20.7085 20.5538 20.7085 20.7979 20.4644C21.0419 20.2204 21.0419 19.8246 20.7979 19.5805L19.472 18.2547C19.228 18.0106 18.8322 18.0106 18.5882 18.2547C18.3441 18.4988 18.3441 18.8945 18.5882 19.1386L19.914 20.4644Z" fill="#262626"/>
</svg>
