<svg width="36" height="36" viewBox="0 0 36 36" fill="none" xmlns="http://www.w3.org/2000/svg">
<rect width="36" height="36" rx="18" fill="#262626"/>
<path d="M15.0334 24.4999C21.0697 24.4999 24.3722 19.4977 24.3722 15.1611C24.3722 15.0205 24.3691 14.8767 24.3628 14.7361C25.0052 14.2715 25.5597 13.696 26 13.0367C25.4017 13.3029 24.7664 13.4768 24.1159 13.5524C24.8009 13.1418 25.3137 12.4969 25.5594 11.7371C24.915 12.1189 24.2104 12.3883 23.4756 12.5336C22.9806 12.0076 22.326 11.6593 21.6131 11.5426C20.9003 11.4259 20.1688 11.5472 19.5318 11.8879C18.8949 12.2286 18.3879 12.7697 18.0892 13.4274C17.7906 14.0852 17.717 14.823 17.8797 15.5267C16.575 15.4613 15.2986 15.1223 14.1333 14.5319C12.968 13.9415 11.9398 13.1128 11.1153 12.0996C10.6963 12.822 10.568 13.677 10.7567 14.4906C10.9453 15.3042 11.4367 16.0155 12.1309 16.4799C11.6098 16.4633 11.1 16.323 10.6438 16.0705V16.1111C10.6433 16.8693 10.9054 17.6043 11.3855 18.1911C11.8657 18.7778 12.5342 19.1803 13.2775 19.3299C12.7947 19.462 12.288 19.4812 11.7966 19.3861C12.0063 20.0382 12.4144 20.6085 12.9638 21.0174C13.5133 21.4264 14.1767 21.6536 14.8616 21.6674C13.6989 22.5806 12.2628 23.076 10.7844 23.0736C10.5222 23.0732 10.2603 23.0571 10 23.0255C11.5019 23.989 13.249 24.5008 15.0334 24.4999Z" fill="white"/>
</svg>
